<svg width="24" height="24" viewBox="0 0 24 24" fill="none" xmlns="http://www.w3.org/2000/svg">
<path fill-rule="evenodd" clip-rule="evenodd" d="M4.14526 3.35515C7.12624 1.52662 9.80046 2.25537 11.416 3.46861C11.6818 3.6682 11.8642 3.8048 12 3.89704C12.1358 3.8048 12.3182 3.6682 12.584 3.46861C14.1995 2.25537 16.8737 1.52662 19.8547 3.35515C21.9159 4.61952 23.0758 7.2606 22.6688 10.2951C22.2598 13.3443 20.2862 16.7929 16.1066 19.8865C16.0717 19.9124 16.037 19.9381 16.0026 19.9635C14.5512 21.0384 13.59 21.7503 12 21.7503C10.4099 21.7503 9.44873 21.0384 7.99734 19.9635C7.96295 19.9381 7.92827 19.9124 7.89331 19.8865C3.71371 16.7929 1.74012 13.3443 1.33117 10.2951C0.92419 7.2606 2.08402 4.61952 4.14526 3.35515ZM11.8432 3.99369C11.84 3.99514 11.8406 3.99467 11.8446 3.99305C11.8441 3.99329 11.8436 3.99351 11.8432 3.99369ZM12.1553 3.99305C12.1594 3.99467 12.1599 3.99514 12.1567 3.99369C12.1563 3.99351 12.1558 3.99329 12.1553 3.99305ZM10.5152 4.66804C9.31873 3.76948 7.31189 3.17245 4.92957 4.63377C3.47144 5.52819 2.47341 7.52746 2.81786 10.0957C3.16035 12.6493 4.8475 15.7659 8.7857 18.6808C10.3679 19.8519 10.9453 20.2503 12 20.2503C13.0546 20.2503 13.6321 19.8519 15.2143 18.6808C19.1525 15.7659 20.8396 12.6493 21.1821 10.0957C21.5265 7.52746 20.5285 5.52819 19.0704 4.63377C16.6881 3.17245 14.6812 3.76948 13.4847 4.66804L13.4638 4.68375C13.1934 4.88682 12.9612 5.06124 12.7754 5.18287C12.6788 5.24609 12.5719 5.31047 12.4609 5.36061C12.3556 5.4082 12.1938 5.46774 12 5.46774C11.8061 5.46774 11.6444 5.4082 11.539 5.36061C11.4281 5.31047 11.3211 5.24609 11.2246 5.18287C11.0388 5.06124 10.8065 4.8868 10.5361 4.68372L10.5152 4.66804Z" fill="#161616"/>
</svg>
